/* XPM */
static char *default[]={
"32 32 6 1",
". c None",
"a c #000000",
"c c #000080",
"# c #808080",
"b c #c3c3c3",
"d c #ffffff",
"................................",
"................................",
"................................",
".#############################a.",
".#bbbbbbbbbbbbbbbbbbbbbbbbbbb#a.",
".#bcccccccccccccccccccccccccc#a.",
".#bcccccccccccccccccbbabbabba#a.",
".#bcccccccccccccccccbbabbabba#a.",
".#bcccccccccccccccccaaaaaaaaa#a.",
".#bbbbbbbbbbbbbbbbbbbbbbbbbbb#a.",
".#b#########################b#a.",
".#b#ddddddddddddddddddddddddb#a.",
".#b#ddddddddddddddddddddddddb#a.",
".#b#ddddddddddddddddddddddddb#a.",
".#b#ddddddddddddddddddddddddb#a.",
".#b#ddddddddddddddddddddddddb#a.",
".#b#ddddddddddddddddddddddddb#a.",
".#b#ddddddddddddddddddddddddb#a.",
".#b#ddddddddddddddddddddddddb#a.",
".#b#ddddddddddddddddddddddddb#a.",
".#b#ddddddddddddddddddddddddb#a.",
".#b#ddddddddddddddddddddddddb#a.",
".#b#ddddddddddddddddddddddddb#a.",
".#b#ddddddddddddddddddddddddb#a.",
".#b#ddddddddddddddddddddddddb#a.",
".#bbbbbbbbbbbbbbbbbbbbbbbbbbb#a.",
".#############################a.",
".aaaaaaaaaaaaaaaaaaaaaaaaaaaaaa.",
"................................",
"................................",
"................................",
"................................"};
