/* XPM */
static char*progs[]={
"32 32 15 1",
"a c #808080",
"i c #008000",
"e c #000080",
"k c #00ff00",
"d c #808000",
"m c #800080",
"j c #00ffff",
"# c #000000",
"c c #ffff00",
"l c #303030",
"g c #800000",
"h c #0000ff",
". c None",
"b c #ffffff",
"f c #ff0000",
"................................",
"................................",
"................................",
"......########..................",
".....#aaaaaaaa#.................",
"....#abccccccca#######..........",
"...#a..........aaaaaaa#.........",
"...#abbbbbbbbbbbbbbbbb#.........",
"...#abc.c.c.c.c.c.c.c.d#........",
"...#ab.c.c.c.c.c.c.c.cd#........",
"...#abc.c.c.c.c.c.c.c.d#####....",
"...#ab.c.aaaaaaaaaaaaaaaaaa#....",
"...#abc.ca.................#....",
"...#ab.c.a.eeeeeeeeeb#b#b#.#....",
"...#abc.ca.eeeeeeeee######.#....",
"...#ab.c.a.................#....",
"...#abc.ca.bbbbbbbbbbbbbbb.#....",
"...#ab.c.a.bbbbbbbbbbbbbbb.#....",
"...#abc.ca.bbfgbbhbbbbbibb.#....",
"...#ddddda.bfcgbbjhhbbbiib.#....",
"...######a.bgfgbbhh.bbikhb.#....",
"........la.b.gbbm.mmbbiiib.#....",
"........#a.bbbbbbbbbbbbbbb.#....",
"........#a.baaabbaaabbaaab.#....",
"........#a.bbbbbbbbbbbbbbb.#....",
"........#a.bbbbbbbbbbbbbbb.#....",
"........#a.................#....",
"........####################....",
"................................",
"................................",
"................................",
"................................"};
