/* XPM */
static char *helpbtn[]={
"33 33 3 1",
". c None",
"a c #000000",
"# c #585858",
".................................",
".................................",
".................................",
".................................",
"..............#aaaaa.............",
".............#aaaaaaa#...........",
"............#aaa##aaaaa..........",
"............aaa#...#aaa#.........",
"...........#aa#.....#aaa.........",
"...........aaa.......#aa.........",
"...........#a#.......#aa.........",
"............#.......#aa#.........",
"....................aaa..........",
"...................#aa#..........",
"..................#aa#...........",
".................#aa#............",
"................#aa#.............",
"................aaa..............",
"...............aaa#..............",
"...............aa#...............",
"...............aa#...............",
"...............##................",
".................................",
".................................",
"...............##................",
"..............#aa#...............",
"..............#aa#...............",
"...............##................",
".................................",
".................................",
".................................",
".................................",
"................................."};
