/* XPM */
static char *menu[]={
"33 33 2 1",
". c None",
"# c #000000",
"...#..##.........................",
"...#####.........................",
"...####..........................",
"....#..#.........................",
"...#...#.##......................",
"..#.#..#.........................",
"..##..#..........................",
".##..#...........................",
".#.###...........................",
".#.###...........................",
".#.##.##.........................",
".#...##.##.#.....................",
".####...#...##...................",
".#.#.##.###..##..................",
".#...##...###.#..................",
".#.##.##..##.###.................",
".###.#.###.......................",
".#.###...####.##.#...............",
"..#...#..#..##.##................",
"..#.##.#..#..######..............",
"...##.#.#####......##............",
"....#..##.....##.#...#...........",
".....##.###..##.#.###............",
"......##..#...#.#....#.#.........",
"........####.#....###.#.#........",
"...........#.#######..##.#.......",
"...........#.#....#####.#.#......",
"............##........##.#.#.....",
"............##..........#.#.#....",
"...........###...........#.#.#...",
"...........#.#............#.#....",
"..........#.#..............#.#...",
"................................."};
