/* XPM */
static char *run[]={
"48 48 146 2",
"Qt c None",
"#m c #002c83",
".R c #003094",
"#y c #00389c",
".G c #003cac",
".l c #0048b4",
".a c #005dcd",
".m c #0065cd",
".n c #0069d5",
".H c #0075de",
".I c #0079e6",
".9 c #0081ee",
".5 c #008df6",
".4 c #0091ff",
"#J c #082c8b",
"#. c #08308b",
"#a c #083894",
"#j c #08389c",
".i c #0848b4",
".s c #0865cd",
".p c #0871d5",
".L c #087de6",
"#f c #10306a",
"ap c #10307b",
"aa c #1044a4",
".h c #1075d5",
"#p c #18306a",
".v c #183c8b",
"al c #18449c",
"#g c #1844a4",
".7 c #188dee",
".6 c #1899ff",
"an c #2050a4",
"ao c #29509c",
"aj c #2950a4",
"am c #2950ac",
".r c #2981de",
".8 c #2989d5",
".j c #313031",
".w c #313431",
"#7 c #314462",
".k c #315dac",
".b c #317dd5",
".c c #3181de",
".o c #3189e6",
".N c #3195ee",
".S c #393439",
".# c #3965b4",
".3 c #3965bd",
".d c #418dde",
"#Z c #4a4c4a",
"ak c #4a71ac",
".g c #4a95e6",
".f c #4a99e6",
"#o c #5271b4",
".e c #5299ee",
".q c #529dee",
".O c #5a75a4",
"## c #626562",
".2 c #6a696a",
"#k c #6a85b4",
".M c #6ab2ff",
".u c #736d94",
"#L c #73716a",
"a# c #7b7573",
"#T c #7b797b",
".t c #836983",
"#X c #8b8583",
"#E c #8b8983",
"#U c #8b898b",
"#F c #8b8d83",
".J c #8bc6ff",
"#G c #948d83",
"#D c #9c958b",
"#5 c #9c9994",
"#S c #9c9d94",
".K c #9cceff",
".F c #a49d9c",
"#C c #a49da4",
"#H c #a4a594",
".Q c #ac716a",
"#K c #acaa9c",
"#Y c #acaaac",
"#M c #b4aaac",
".1 c #b4aeac",
"#N c #b4b6b4",
"#b c #b4c6de",
".0 c #bdaeac",
".Z c #bdb6ac",
"#B c #bdb6b4",
"#O c #bdb6bd",
".E c #bdbaac",
".Y c #bdbabd",
".X c #bdbebd",
".W c #bdc2cd",
".D c #c5bab4",
"ah c #c5bebd",
"#A c #c5bec5",
"#e c #c5dede",
".C c #cdc2bd",
"#u c #cdc6b4",
"#w c #cdc6bd",
"#v c #cdcabd",
".B c #cdcacd",
"ai c #cdcede",
".V c #cdd2de",
"#9 c #cddae6",
"#c c #cddede",
"#d c #cddee6",
"#V c #d5cebd",
"a. c #d5ced5",
"#n c #d5d2d5",
".A c #d5d6de",
"#4 c #d5dade",
".U c #d5dee6",
".y c #d5e2ee",
"ad c #ded2c5",
"#3 c #ded6cd",
"ae c #ded6d5",
"#s c #dedae6",
"#2 c #dedede",
".z c #dedeee",
"#r c #dee2ee",
"#q c #deeeff",
"#0 c #e6dacd",
"#R c #e6dad5",
"#x c #e6e2d5",
".x c #e6eeff",
"#t c #eee2d5",
"ab c #eee6de",
"ac c #eee6e6",
"#l c #eeeade",
"#P c #eeeae6",
"#8 c #eef6ff",
"#h c #f6eade",
"#i c #f6eede",
"#W c #f6eee6",
"#1 c #f6eeee",
"ag c #f6f2ee",
"#6 c #f6f6f6",
".T c #f6faff",
".P c #ff7139",
"af c #fff6ee",
"#Q c #fffaf6",
"#z c #fffaff",
"#I c #ffffff",
"QtQtQtQtQtQtQtQtQtQtQtQtQtQtQtQtQtQtQtQtQtQtQtQtQtQtQtQtQtQtQtQtQtQtQtQtQtQtQtQtQtQtQtQtQtQtQtQt",
"QtQtQtQtQtQtQtQtQtQtQtQtQtQtQtQtQtQtQtQtQtQtQtQtQtQtQtQtQtQtQtQtQtQtQtQtQtQtQtQtQtQtQtQtQtQtQtQt",
"QtQtQtQtQtQtQtQtQtQtQtQtQtQtQtQtQtQtQtQtQtQtQtQtQtQtQtQtQtQtQtQtQtQtQtQtQtQtQtQtQtQtQtQtQtQtQtQt",
"QtQtQtQtQtQtQtQtQtQtQtQtQtQtQtQtQtQtQtQtQtQtQtQtQtQtQtQtQtQtQtQtQtQtQtQtQtQtQtQtQtQtQtQtQtQtQtQt",
"QtQtQtQtQtQtQtQtQtQtQtQtQtQtQtQtQtQtQtQtQtQtQtQtQtQtQtQtQtQtQtQtQtQtQtQtQtQtQtQtQtQtQtQtQtQtQtQt",
"QtQtQtQtQtQtQtQtQtQtQtQtQtQtQtQtQtQtQtQtQtQtQtQtQtQtQtQtQtQtQtQtQtQtQtQtQtQtQtQtQtQtQtQtQtQtQtQt",
"QtQtQtQtQtQtQtQtQtQtQtQtQtQtQtQtQtQtQtQtQtQtQtQtQtQtQtQtQtQtQtQtQtQtQtQtQtQtQtQtQtQtQtQtQtQtQtQt",
"QtQtQtQtQtQtQtQtQtQtQtQtQtQtQtQtQtQtQtQtQtQtQtQtQtQtQtQtQtQtQtQtQtQtQtQtQtQtQtQtQtQtQtQtQtQtQtQt",
"QtQtQtQtQtQtQtQtQtQtQtQtQtQtQtQtQtQtQtQtQtQtQtQtQtQtQtQtQtQtQtQtQtQtQtQtQtQtQtQtQtQtQtQtQtQtQtQt",
"QtQtQtQtQtQtQtQtQtQtQtQtQtQtQtQtQtQtQtQtQtQtQtQtQtQtQtQtQtQtQtQtQtQtQtQtQtQtQtQtQtQtQtQtQtQtQtQt",
"QtQtQtQtQtQtQtQtQtQtQtQtQtQtQtQtQtQtQtQtQtQtQtQtQtQtQtQtQtQtQtQtQtQtQtQtQtQtQtQtQtQtQtQtQtQtQtQt",
"QtQtQtQtQtQtQtQtQtQtQtQtQtQt.#.a.b.c.d.e.f.e.f.e.f.e.f.e.f.e.f.e.f.e.f.e.f.e.f.e.f.g.h.i.jQtQtQt",
"QtQtQtQtQtQtQtQtQtQtQtQtQt.k.l.m.n.m.n.m.n.m.n.m.n.m.n.m.n.m.n.m.n.m.o.f.p.h.q.r.s.t.u.m.v.wQtQt",
"Qt.x.y.z.A.B.B.C.D.E.FQtQt.G.H.I.H.I.H.I.H.I.H.I.H.I.H.I.H.I.H.I.H.I.J.K.L.M.K.N.O.P.Q.I.R.SQtQt",
".T.U.V.B.W.X.Y.Z.0.1.2Qt.3.m.4.5.4.5.4.5.4.5.4.5.4.5.4.5.4.5.4.5.4.5.6.6.4.6.6.5.7.8.7.9#..wQtQt",
"Qt.2##.2##.2##.2##.2QtQt#a#b#c#d#e#d#c#d#e#d#c#d#e#d#c#d#e#d#c#d#e#d#c#d#e#d#c#d#e#d#c.3#f.wQtQt",
"QtQtQtQtQtQtQtQtQtQtQtQt#g#h#i#h#i#h#i#h#i#h#i#h#i#h#i#h#i#h#i#h#i#h#i#h#i#h#i#h#i#h#i#j.SQtQtQt",
"QtQtQtQtQtQtQtQtQtQtQt.3#k#i#l#i#h#i#l#i#h#i#l#i#h#i#l#i#h#i#l#i#h#i#l#i#h#i#l#i#h#i.W#m.jQtQtQt",
"QtQtQtQtQtQtQtQtQtQtQt.R#n#h#i#h#i#h#i#h#i#h#i#h#i#h#i#h#i#h#i#h#i#h#i#h#i#h#i#h#i#h#o#p.SQtQtQt",
"Qt#q#r#s.B.B.D.E.FQtQt#g#l#i#h#t#u#v#w#v#u#v#w#v#u#v#w#v#u#v#w#v#u#v#w#v#u#x#h#i#l#i#y.SQtQtQtQt",
"#z.U.V.W#A#B.0#C.2Qt.3#k#i#h#i.Z#D#E#F#E#G#E#F#E#G#E#F#E#G#E#F#E#G#E#F#H#w#I#i#h#i.W#J.wQtQtQtQt",
"Qt.2##.2##.2##.2QtQt.R#n#h#i#l#K#L#M#N#O#N#O#N#O#N#O#N#O#N#O#N#O#N#O#N#v#P#Q#l#i#h#o#f.wQtQtQtQt",
"QtQtQtQtQtQtQtQtQtQt#g#h#i#h#R#S#T#I#U#I#I#I#I#I#I#I#I#I#I#I#I#I#I#I#I#V#I#W#i#h#i#j.SQtQtQtQtQt",
"QtQtQtQtQtQtQtQtQt.3#k#i#l#i.Z#X#Y#I#Z#I#I#I#I#I#I#I#I#I#I#I#I#I#I#I#P#0#I#i#h#i.W#m.jQtQtQtQtQt",
"QtQtQtQtQtQtQtQtQt#g#n#h#i#h#K#L#1#2.1#I#I#I#I#I#I#I#I#I#I#I#I#I#I#I#3#P#z#h#i#h#o#p.SQtQtQtQtQt",
"Qt.x#4.B.D.E.FQtQt#g#l#i#h#0#5#T#I#T#6#I#I#I#I#I#I#I#I#I#I#I#I#I#I#I#V#I#W#i#l#i#y#7.jQtQtQtQtQt",
"#8#9a..X.0#C.2Qt.3#k#i#h#i.Z#X#Y#Ia##I#I#I#I#I#I#I#I#I#I#I#I#I#I#I#P#0#I#i#h#i.W#J.wQtQtQtQtQtQt",
"Qt.2##.2##.2QtQtaa#n#h#i#l#K#5#Rabababacabababacabababacabababacabad#P#Q#l#i#h#o#f.wQtQtQtQtQtQt",
"QtQtQtQtQtQtQtQt#g#h#i#h#Pae#Pab#Pab#Pab#Pab#Pab#Pab#Pab#Pab#Pab#Pab#I#W#i#h#i#j#7.wQtQtQtQtQtQt",
"QtQtQtQtQtQtQt.3#k#i#l#i#hafagafagafagafagafagafagafagafagafagafagafag#i#h#i.W#m.jQtQtQtQtQtQtQt",
"QtQtQtQtQtQtQt#g#n#h#i#h#i#h#i#h#i#h#i#h#i#h#i#h#i#h#i#h#i#h#i#h#i#h#i#h#i#h#o#p.SQtQtQtQtQtQtQt",
"Qt.z.Bah.FQtQt#g#l#i#h#i#l#i#h#i#l#i#h#i#l#i#h#i#l#i#h#i#l#i#h#i#l#i#h#i#l#i#y#7.jQtQtQtQtQtQtQt",
"#8ai#A#Y.2Qt.3#k#i#h#i#h#i#h#i#h#i#h#i#h#i#h#i#h#i#h#i#h#i#h#i#h#i#h#i#h#i.W#J.wQtQtQtQtQtQtQtQt",
"Qt.2##.2QtQt.R#n#h#i#l#i#h#i#l#i#h#i#l#i#h#i#l#i#h#i#l#i#h#i#l#i#h#i#l#i#h#o#f.wQtQtQtQtQtQtQtQt",
"QtQtQtQtQtajak#h#i#h#i#h#i#h#i#h#i#h#i#h#i#h#i#h#i#h#i#h#i#h#i#h#i#h#i#h#i.R#7.wQtQtQtQtQtQtQtQt",
"QtQtQtQtQtajalamanajajamanajajamanajajamanajajamanajajamanajajamanajajamaoap.jQtQtQtQtQtQtQtQtQt",
"QtQtQtQtQtQt.S.w.S.w.S.w.S.w.S.w.S.w.S.w.S.w.S.w.S.w.S.w.S.w.S.w.S.w.S.w.S.w.SQtQtQtQtQtQtQtQtQt",
"QtQtQtQtQtQtQtQtQtQtQtQtQtQtQtQtQtQtQtQtQtQtQtQtQtQtQtQtQtQtQtQtQtQtQtQtQtQtQtQtQtQtQtQtQtQtQtQt",
"QtQtQtQtQtQtQtQtQtQtQtQtQtQtQtQtQtQtQtQtQtQtQtQtQtQtQtQtQtQtQtQtQtQtQtQtQtQtQtQtQtQtQtQtQtQtQtQt",
"QtQtQtQtQtQtQtQtQtQtQtQtQtQtQtQtQtQtQtQtQtQtQtQtQtQtQtQtQtQtQtQtQtQtQtQtQtQtQtQtQtQtQtQtQtQtQtQt",
"QtQtQtQtQtQtQtQtQtQtQtQtQtQtQtQtQtQtQtQtQtQtQtQtQtQtQtQtQtQtQtQtQtQtQtQtQtQtQtQtQtQtQtQtQtQtQtQt",
"QtQtQtQtQtQtQtQtQtQtQtQtQtQtQtQtQtQtQtQtQtQtQtQtQtQtQtQtQtQtQtQtQtQtQtQtQtQtQtQtQtQtQtQtQtQtQtQt",
"QtQtQtQtQtQtQtQtQtQtQtQtQtQtQtQtQtQtQtQtQtQtQtQtQtQtQtQtQtQtQtQtQtQtQtQtQtQtQtQtQtQtQtQtQtQtQtQt",
"QtQtQtQtQtQtQtQtQtQtQtQtQtQtQtQtQtQtQtQtQtQtQtQtQtQtQtQtQtQtQtQtQtQtQtQtQtQtQtQtQtQtQtQtQtQtQtQt",
"QtQtQtQtQtQtQtQtQtQtQtQtQtQtQtQtQtQtQtQtQtQtQtQtQtQtQtQtQtQtQtQtQtQtQtQtQtQtQtQtQtQtQtQtQtQtQtQt",
"QtQtQtQtQtQtQtQtQtQtQtQtQtQtQtQtQtQtQtQtQtQtQtQtQtQtQtQtQtQtQtQtQtQtQtQtQtQtQtQtQtQtQtQtQtQtQtQt",
"QtQtQtQtQtQtQtQtQtQtQtQtQtQtQtQtQtQtQtQtQtQtQtQtQtQtQtQtQtQtQtQtQtQtQtQtQtQtQtQtQtQtQtQtQtQtQtQt",
"QtQtQtQtQtQtQtQtQtQtQtQtQtQtQtQtQtQtQtQtQtQtQtQtQtQtQtQtQtQtQtQtQtQtQtQtQtQtQtQtQtQtQtQtQtQtQtQt"};
