/* XPM */
static char*stand[]={
"34 34 5 1",
"b c #808080",
". c #e0e0e0",
"c c #000000",
"a c #303030",
"# c None",
".#################################",
"################aa################",
"###############aaaa###############",
"##############aabbaa##############",
"#############aab###aa#############",
"############aab#aa##aa############",
"###########aab#cccc##aa###########",
"##########aab#ccbbac##aa##########",
"#########aab#cab###cc##aa#########",
"########aab#cab#cc##cc##aa########",
"#######aab#cab#cccc##cc##aa#######",
"######aab#cab#ccbbcc##cc##aa######",
"#####aab#cab#ccb###cc##cc##aa#####",
"####aab#cab#ccb#####cc##cc##aa####",
"###aab#cab#ccb#######cc##cc##aa###",
"##aab#cab#ccb#########cc##cc##aa##",
"#aab#cab#ccb###########cc##cc##aa#",
"aab#cab#ccb#############cc##cc##aa",
"ab##cb##cb###############cb##cb##a",
"#b###b###b################b###b###",
"##################################",
"##################################",
"##################################",
"##################################",
"##################################",
"##################################",
"##################################",
"##################################",
"##################################",
"##################################",
"##################################",
"##################################",
"##################################",
"##################################"};
